<svg xmlns="http://www.w3.org/2000/svg" viewBox="0 0 135.89 219.5"><defs><style>.cls-1,.cls-4{fill:none;stroke-miterlimit:10;}.cls-1{stroke:#1d1d1b;stroke-width:2px;}.cls-2{fill:#1d1d1b;}.cls-3{fill:#008d36;}.cls-4{stroke:#008d36;stroke-width:3px;}</style></defs><title>clessidra</title><g id="Livello_2" data-name="Livello 2"><g id="Livello_1-2" data-name="Livello 1"><path class="cls-1" d="M6.35,11.67a148.22,148.22,0,0,0,.47,23.27,106.76,106.76,0,0,0,4.06,20.5,84.66,84.66,0,0,0,7.68,17.72A76.49,76.49,0,0,0,29.89,88.07a82.79,82.79,0,0,0,15,12.1c2.56,1.62,5.21,3.12,7.92,4.5,3.32,1.69,8,3.08,7.59,7.73-.36,3.74-3.09,5.33-6.15,6.82a98.18,98.18,0,0,0-8.92,5,83.11,83.11,0,0,0-15.08,12A77.17,77.17,0,0,0,18.81,151,84.59,84.59,0,0,0,11,168.63,106.84,106.84,0,0,0,6.86,189a148.26,148.26,0,0,0-.57,23.18c0,.25,0,.49,0,.74"/><path class="cls-1" d="M130.15,11.67a148.22,148.22,0,0,1-.47,23.27,106.76,106.76,0,0,1-4.06,20.5,84.66,84.66,0,0,1-7.68,17.72,76.49,76.49,0,0,1-11.33,14.91,82.79,82.79,0,0,1-15,12.1c-2.56,1.62-5.21,3.12-7.92,4.5-3.32,1.69-8,3.08-7.59,7.73.36,3.74,3.09,5.33,6.15,6.82a98.18,98.18,0,0,1,8.92,5,83.11,83.11,0,0,1,15.08,12A77.17,77.17,0,0,1,117.69,151a84.59,84.59,0,0,1,7.78,17.63A106.84,106.84,0,0,1,129.64,189a148.26,148.26,0,0,1,.57,23.18c0,.25,0,.49,0,.74"/><rect class="cls-2" y="208" width="135.89" height="11.5" rx="5.75" ry="5.75"/><rect class="cls-2" width="135.89" height="11.5" rx="5.75" ry="5.75"/><path class="cls-3" d="M21.68,61.66h92.63a117.33,117.33,0,0,1-38.41,41,12.73,12.73,0,0,1-13.26.37A110.52,110.52,0,0,1,21.68,61.66Z"/><line class="cls-4" x1="68.84" y1="96.5" x2="68.84" y2="178.76"/><path class="cls-3" d="M21.68,207.8h92.63a117.33,117.33,0,0,0-38.41-41,12.73,12.73,0,0,0-13.26-.37A110.52,110.52,0,0,0,21.68,207.8Z"/></g></g></svg>