<svg xmlns="http://www.w3.org/2000/svg" xmlns:xlink="http://www.w3.org/1999/xlink" viewBox="0 0 94.77 94.77"><defs><style>.cls-1{fill:url(#radial-gradient);}.cls-2{fill:#52a8dc;}.cls-3{fill:url(#Sfumatura_senza_nome_13);}.cls-4{mix-blend-mode:screen;}.cls-5{fill:url(#linear-gradient);}.cls-6{opacity:0.8;mix-blend-mode:multiply;}.cls-7{fill:url(#Sfumatura_senza_nome_6);}.cls-8{fill:url(#linear-gradient-2);}</style><radialGradient id="radial-gradient" cx="13.23" cy="6.15" r="64.87" gradientTransform="translate(0)" gradientUnits="userSpaceOnUse"><stop offset="0" stop-color="#d1edfb"/><stop offset="1" stop-color="#3da3db"/></radialGradient><radialGradient id="Sfumatura_senza_nome_13" cx="32" cy="32" r="32" gradientUnits="userSpaceOnUse"><stop offset="0" stop-color="#39b54a"/><stop offset="0.22" stop-color="#22a748"/><stop offset="0.47" stop-color="#0f9b46"/><stop offset="0.73" stop-color="#049445"/><stop offset="1" stop-color="#009245"/></radialGradient><linearGradient id="linear-gradient" x1="-0.91" y1="-7.51" x2="33.53" y2="36.61" gradientUnits="userSpaceOnUse"><stop offset="0" stop-color="#fff"/><stop offset="1"/></linearGradient><linearGradient id="Sfumatura_senza_nome_6" x1="31.69" y1="31.22" x2="44.35" y2="62.88" gradientUnits="userSpaceOnUse"><stop offset="0" stop-color="#fff"/><stop offset="0.08" stop-color="#f6fbf8"/><stop offset="0.22" stop-color="#dcf0e6"/><stop offset="0.4" stop-color="#b2dec7"/><stop offset="0.62" stop-color="#79c69d"/><stop offset="0.85" stop-color="#30a768"/><stop offset="0.99" stop-color="#009245"/></linearGradient><linearGradient id="linear-gradient-2" x1="43.69" y1="46.34" x2="48.35" y2="51.17" gradientUnits="userSpaceOnUse"><stop offset="0.65" stop-color="#fff"/><stop offset="1" stop-color="#c4c5c7"/></linearGradient><symbol id="Sticker_-_rosso" data-name="Sticker - rosso" viewBox="0 0 64 64"><path class="cls-1" d="M32,63.88A31.88,31.88,0,1,1,63.88,32a32.27,32.27,0,0,1-.76,6.9L33.91,63.84C33.31,63.85,32.66,63.88,32,63.88Z"/><path class="cls-2" d="M32,.25A31.73,31.73,0,0,1,63,38.79L33.89,63.69c-.72,0-1.32.06-1.89.06A31.75,31.75,0,0,1,32,.25M32,0a32,32,0,0,0,0,64c.66,0,1.32,0,2-.07h0l29.25-25A32,32,0,0,0,32,0Z"/><path class="cls-3" d="M32,0a32,32,0,0,0,0,64c.66,0,1.32,0,2-.07h0l29.25-25h0A32,32,0,0,0,32,0Z"/><g class="cls-4"><path class="cls-5" d="M1,32.21A31.47,31.47,0,0,1,45.65,3.62a31.49,31.49,0,1,0-26.85,57A31.53,31.53,0,0,1,1,32.21Z"/></g><g class="cls-6"><path class="cls-7" d="M32,63.75A31.74,31.74,0,0,1,1.92,42.14l-.11-.33h.35c9.65,0,20.72-3,31.17-8.45,10-5.17,18.59-12.14,24.22-19.62l.21-.27.2.28A31.48,31.48,0,0,1,63.75,32,32.11,32.11,0,0,1,63,38.71l0,.08-.06.06L34,63.63l-.06.06H33.8c-.59,0-1.2.06-1.8.06Z"/></g><path class="cls-8" d="M63.24,38.93h0c-16.08,0-27,10.41-29.27,25h0Z"/></symbol></defs><title>simbolo verde</title><g id="Livello_2" data-name="Livello 2"><g id="Livello_1-2" data-name="Livello 1"><use id="Sticker_-_rosso-3" data-name="Sticker - rosso" width="64" height="64" transform="scale(1.48)" xlink:href="#Sticker_-_rosso"/></g></g></svg>