<?xml version="1.0" encoding="utf-8"?>
<!-- Generator: Adobe Illustrator 16.0.0, SVG Export Plug-In . SVG Version: 6.00 Build 0)  -->
<!DOCTYPE svg PUBLIC "-//W3C//DTD SVG 1.1//EN" "http://www.w3.org/Graphics/SVG/1.1/DTD/svg11.dtd">
<svg version="1.1" id="Layer_1" xmlns="http://www.w3.org/2000/svg" xmlns:xlink="http://www.w3.org/1999/xlink" x="0px" y="0px"
	 width="100px" height="100px" viewBox="0 0 100 100" style="enable-background:new 0 0 100 100;" xml:space="preserve">
<style type="text/css">
<![CDATA[
	.st0{clip-path:url(#SVGID_2_);}
	.st1{fill:#FFFFFF;}
	.st2{fill:#008D36;}
	.st3{fill:#040506;}
]]>
</style>
<g>
	<g>
		<path d="M92.2,42.9c0.1,1.1-0.2,1.9-1.1,2.4c-0.9,0.5-2.4,0.9-4.5,1.2l-2.1,0.2c0.2,0.7,0.7,1.3,1.4,1.7c0.7,0.4,1.6,0.5,2.5,0.4
			c1.7-0.2,3-0.7,3.7-1.6l0.1,0l0.1,0.9c0.2,1.8-1.2,2.9-4.2,3.3c-1.6,0.2-3.2-0.2-4.6-1.2c-1.4-1-2.2-2.4-2.5-4.2
			c-0.3-2,0.1-3.7,1.1-5c1-1.3,2.4-2.1,4.3-2.3c1.4-0.2,2.6,0.1,3.8,0.9C91.4,40.4,92,41.5,92.2,42.9z M89.2,42.9
			c-0.1-0.6-0.3-1-0.8-1.3c-0.5-0.3-1.1-0.3-1.8-0.3s-1.3,0.4-1.8,1c-0.4,0.6-0.6,1.2-0.6,1.9l0,0.4l1.4-0.2
			c1.5-0.2,2.4-0.4,2.9-0.6C89,43.7,89.2,43.3,89.2,42.9z"/>
		<path class="st1" d="M87.4,51.9c-1.4,0-2.8-0.4-4-1.3c-1.5-1.1-2.4-2.6-2.6-4.4c-0.3-2.1,0.1-3.9,1.2-5.3c1.1-1.4,2.6-2.2,4.5-2.5
			c1.5-0.2,2.8,0.1,4,0.9c1.2,0.8,1.9,2,2.1,3.5c0.2,1.2-0.3,2.2-1.3,2.9c-0.9,0.6-2.5,1-4.7,1.3l-1.5,0.2c0.2,0.4,0.5,0.7,1,0.9
			c0.5,0.3,1.1,0.4,1.7,0.4l0,0c0.2,0,0.4,0,0.6,0c1.6-0.2,2.8-0.7,3.5-1.5l0.1-0.1l0.7-0.1l0.2,1.3c0.1,0.8-0.1,1.5-0.5,2.1
			c-0.7,0.9-2,1.5-4.1,1.7C87.9,51.9,87.7,51.9,87.4,51.9z M87.2,39.2c-0.2,0-0.5,0-0.7,0c-1.7,0.2-3,0.9-4,2.1
			c-0.9,1.2-1.3,2.8-1,4.7c0.2,1.7,1,2.9,2.3,3.9c1.3,0.9,2.8,1.3,4.3,1.1c1.8-0.2,3-0.7,3.5-1.4c0.3-0.4,0.4-0.9,0.3-1.4l0-0.2
			c-0.8,0.7-2,1.1-3.5,1.3c-0.2,0-0.5,0-0.7,0l0,0c-0.8,0-1.5-0.2-2.1-0.5c-0.8-0.4-1.4-1.1-1.6-1.9L84,46.4l2.6-0.3
			c2.1-0.2,3.5-0.6,4.3-1.1c0.7-0.4,1-1.1,0.9-2C91.6,41.7,91,40.7,90,40C89.2,39.5,88.2,39.2,87.2,39.2z M83.9,45.1l-0.1-0.8
			c-0.1-0.8,0.1-1.6,0.6-2.2c0.5-0.6,1.2-1,2-1.1c0.8-0.1,1.5,0,2.1,0.3c0.6,0.3,0.9,0.9,1,1.6c0.1,0.6-0.2,1.1-0.9,1.4
			c-0.5,0.3-1.5,0.5-3,0.6L83.9,45.1z M87.1,41.7c-0.2,0-0.3,0-0.5,0c-0.6,0.1-1.1,0.3-1.5,0.8c-0.4,0.5-0.5,1-0.5,1.6l1-0.1
			c1.8-0.2,2.5-0.4,2.8-0.6c0.4-0.2,0.4-0.4,0.4-0.6c-0.1-0.5-0.3-0.8-0.6-1C87.9,41.8,87.5,41.7,87.1,41.7z"/>
	</g>
	<g>
		<path d="M21.3,46.7c0,1.7-0.6,3-1.7,4c-1.1,1-2.7,1.5-4.7,1.5c-1.7,0-2.9-0.3-3.8-0.9c-0.9-0.6-1.3-1.4-1.3-2.4v-1.5h0.1
			c1.4,1.2,2.9,1.8,4.7,1.8c1.2,0,2.1-0.2,2.6-0.6c0.5-0.4,0.8-0.9,0.8-1.7c0-0.6-0.2-1.1-0.7-1.4c-0.5-0.3-1.6-0.7-3.3-1
			c-3-0.6-4.5-2.1-4.5-4.4c0-1.5,0.6-2.8,1.7-3.8c1.2-1.1,2.7-1.6,4.6-1.6c1.8,0,3.1,0.3,3.9,0.9c0.8,0.6,1.2,1.3,1.2,2.2v1.6h-0.1
			c-1-1.1-2.5-1.7-4.4-1.7c-2.4,0-3.6,0.7-3.6,2.2c0,0.5,0.3,1,0.8,1.3c0.5,0.3,1.6,0.7,3.1,1C19.8,42.9,21.3,44.4,21.3,46.7z"/>
		<path class="st1" d="M14.9,52.7c-1.7,0-3.1-0.3-4.1-1c-1-0.7-1.5-1.6-1.5-2.8V47H10l0.1,0.1c1.3,1.1,2.8,1.7,4.4,1.7
			c1.1,0,1.9-0.2,2.4-0.5c0.4-0.3,0.6-0.7,0.6-1.3c0-0.5-0.2-0.8-0.5-1.1c-0.4-0.3-1.5-0.6-3.2-1C10.6,44.3,9,42.7,9,40.2
			c0-1.6,0.6-3,1.9-4.2c1.2-1.2,2.9-1.7,4.9-1.7c1.9,0,3.3,0.3,4.1,1c0.9,0.7,1.4,1.5,1.4,2.5v2h-0.7l-0.1-0.1c-1-1-2.3-1.5-4.1-1.5
			c-3.2,0-3.2,1.3-3.2,1.8c0,0.4,0.2,0.7,0.6,0.9c0.4,0.2,1.2,0.6,3,0.9c3.3,0.7,4.9,2.3,4.9,4.9c0,1.8-0.6,3.3-1.8,4.3
			C18.7,52.2,17,52.7,14.9,52.7z M10.2,48.2v0.7c0,0.9,0.4,1.6,1.2,2.1c0.8,0.6,2,0.8,3.6,0.8c1.9,0,3.4-0.5,4.4-1.4
			c1-0.9,1.5-2.1,1.5-3.7c0-2.2-1.4-3.5-4.3-4.1c-1.6-0.3-2.6-0.7-3.2-1.1c-0.8-0.5-1-1.2-1-1.6c0-1.2,0.7-2.6,4-2.6
			c1.7,0,3,0.4,4.1,1.2v-0.7c0-0.7-0.3-1.3-1-1.9c-0.7-0.5-1.9-0.8-3.6-0.8c-1.8,0-3.2,0.5-4.3,1.5c-1.1,1-1.6,2.2-1.6,3.5
			c0,2.1,1.4,3.3,4.2,3.9c1.8,0.4,2.9,0.7,3.4,1.1c0.6,0.4,0.9,1,0.9,1.8c0,0.9-0.3,1.5-0.9,2c-0.6,0.4-1.5,0.6-2.9,0.6
			C12.9,49.7,11.5,49.2,10.2,48.2z"/>
	</g>
	<g>
		<path d="M40.5,50.1c0,0.7-0.2,1.2-0.5,1.5s-0.8,0.5-1.5,0.5c-1.3,0-2.3-0.3-3-1.1c-0.7-0.7-1-1.7-1-3.1v-9h0.9
			c1.6,0,2.4,0.8,2.4,2.5v6.2c0,0.7,0.2,1.1,0.5,1.4c0.3,0.3,0.8,0.4,1.6,0.4h0.6V50.1z"/>
		<path class="st1" d="M38.6,52.5c-1.4,0-2.5-0.4-3.3-1.2c-0.8-0.8-1.1-1.9-1.1-3.4v-9.4h1.4c1.8,0,2.8,1,2.8,2.9v6.2
			c0,0.5,0.1,0.9,0.3,1c0.1,0.1,0.5,0.3,1.3,0.3h1v1.1c0,0.8-0.2,1.4-0.6,1.8C40,52.3,39.4,52.5,38.6,52.5z M35,39.4v8.6
			c0,1.3,0.3,2.2,0.9,2.8c0.6,0.6,1.5,0.9,2.7,0.9c0.6,0,1-0.1,1.2-0.3c0.2-0.2,0.3-0.7,0.3-1.2v-0.3h-0.2c-0.8,0-1.5-0.2-1.8-0.5
			c-0.4-0.3-0.6-0.9-0.6-1.7v-6.2c0-1.4-0.6-2-1.9-2H35z"/>
	</g>
	<g>
		<path d="M61.3,52h-0.8c-0.9,0-1.5-0.2-1.9-0.6c-0.4-0.4-0.6-1-0.6-1.8v-5.1c0-1-0.2-1.8-0.7-2.4c-0.4-0.5-1-0.8-1.8-0.8
			c-0.7,0-1.2,0.2-1.6,0.7c-0.4,0.5-0.6,1.2-0.6,2.1V52h-0.9c-0.7,0-1.3-0.2-1.8-0.6c-0.4-0.4-0.7-1-0.7-1.8v-5.1
			c0-1-0.2-1.8-0.7-2.4c-0.4-0.5-1-0.8-1.8-0.8c-0.7,0-1.2,0.3-1.6,0.7c-0.4,0.5-0.6,1.2-0.6,2.1V52h-0.9c-0.7,0-1.3-0.2-1.7-0.7
			c-0.5-0.4-0.7-1-0.7-1.8v-5.2c0-1.9,0.5-3.4,1.5-4.4c1-1.1,2.5-1.6,4.4-1.6c1.7,0,3,0.7,4.1,2.1c0.4-0.6,0.9-1.1,1.6-1.5
			c0.7-0.4,1.4-0.6,2.2-0.6c1.6,0,2.9,0.5,4,1.4c1,1,1.6,2.4,1.6,4.2V52z"/>
		<path class="st1" d="M61.8,52.4h-1.2c-1,0-1.7-0.2-2.2-0.7c-0.5-0.5-0.7-1.2-0.7-2.1v-5.1c0-1-0.2-1.7-0.6-2.1
			c-0.4-0.4-0.8-0.6-1.5-0.6c-0.6,0-1,0.2-1.3,0.6c-0.3,0.4-0.5,1-0.5,1.8v8.3h-1.3c-0.9,0-1.5-0.3-2.1-0.7
			c-0.5-0.5-0.8-1.2-0.8-2.1v-5.1c0-1-0.2-1.7-0.6-2.1c-0.4-0.4-0.9-0.6-1.5-0.6c-0.5,0-0.9,0.2-1.3,0.6c-0.4,0.4-0.5,1-0.5,1.8v8.3
			h-1.3c-0.8,0-1.5-0.3-2-0.8c-0.5-0.5-0.8-1.2-0.8-2.1v-5.2c0-2,0.5-3.6,1.6-4.7c1.1-1.2,2.7-1.7,4.7-1.7c1.6,0,3,0.6,4,1.8
			c0.4-0.5,0.9-0.9,1.4-1.2c0.8-0.4,1.6-0.6,2.4-0.6c1.7,0,3.2,0.5,4.3,1.6c1.1,1.1,1.7,2.6,1.7,4.5V52.4z M55.6,40.9
			c0.9,0,1.6,0.3,2.1,0.9c0.5,0.6,0.7,1.5,0.7,2.6v5.1c0,0.7,0.2,1.2,0.5,1.5c0.3,0.3,0.9,0.5,1.6,0.5h0.4V44c0-1.7-0.5-3-1.4-3.9
			c-1-0.9-2.2-1.3-3.7-1.3c-0.7,0-1.4,0.2-2,0.5c-0.6,0.3-1.1,0.8-1.5,1.4L52,41.2l-0.4-0.5c-1-1.3-2.2-1.9-3.7-1.9
			c-1.9,0-3.2,0.5-4.1,1.5c-0.9,1-1.4,2.4-1.4,4.1v5.2c0,0.6,0.2,1.1,0.6,1.5c0.4,0.4,0.8,0.5,1.4,0.5h0.5v-7.4c0-1,0.2-1.8,0.7-2.4
			c0.5-0.6,1.2-0.9,1.9-0.9c0.9,0,1.6,0.3,2.1,0.9c0.5,0.6,0.8,1.5,0.8,2.6v5.1c0,0.7,0.2,1.2,0.5,1.5c0.4,0.3,0.8,0.5,1.5,0.5h0.5
			V44c0-1,0.2-1.8,0.7-2.3C54.1,41.2,54.8,40.9,55.6,40.9z"/>
	</g>
	<g>
		<path d="M74.6,44.9c0,2.2-0.5,4-1.6,5.3c-1,1.4-2.5,2.2-4.4,2c-0.6,0-2.2-0.6-3-1.1c-0.2-0.1-0.5,0-0.5,0.2l0.1,4.8h-1
			c-0.6,0-1.2-0.2-1.6-0.6c-0.5-0.4-0.7-1-0.7-1.7v-8.1c0-2.3,0.6-4.1,1.7-5.5c1.1-1.3,2.8-2,5-2c1.7,0,3.1,0.7,4.3,2
			C74,41.7,74.6,43.2,74.6,44.9z M71.2,45.8c0-1.6-0.3-2.7-0.8-3.4c-0.5-0.7-1.3-1.1-2.4-1.1c-0.9,0-1.6,0.4-2.1,1.1
			c-0.5,0.7-0.7,1.7-0.7,2.8c0,1.3,0.3,2.3,0.9,3.1c0.6,0.7,1.4,1.1,2.4,1.1c0.8,0,1.5-0.3,2-1C70.9,47.7,71.2,46.8,71.2,45.8z"/>
		<path class="st1" d="M65.6,56.6h-1.5c-0.7,0-1.4-0.2-1.9-0.7c-0.6-0.5-0.8-1.2-0.8-2v-8.1c0-2.4,0.6-4.3,1.7-5.8
			c1.2-1.4,3-2.1,5.3-2.1c1.8,0,3.4,0.7,4.6,2.1c1.2,1.4,1.8,3,1.8,4.9c0,2.3-0.6,4.1-1.7,5.6c-1.2,1.6-2.9,2.4-4.8,2.2
			c-0.6,0-2.1-0.5-3-1.1L65.6,56.6z M68.5,38.8c-2.1,0-3.7,0.6-4.7,1.8c-1,1.3-1.6,3-1.6,5.2v8.1c0,0.6,0.2,1,0.6,1.4
			c0.4,0.4,0.8,0.5,1.4,0.5h0.6l-0.1-4.3c0-0.2,0.1-0.4,0.2-0.5c0.2-0.2,0.6-0.3,0.9-0.1c0.8,0.5,2.4,1,2.8,1c1.7,0.1,3-0.5,4.1-1.9
			c1-1.3,1.5-3,1.5-5.1c0-1.6-0.5-3.1-1.6-4.3C71.4,39.4,70.1,38.8,68.5,38.8z M68.4,49.7c-1.1,0-2-0.4-2.7-1.3
			c-0.7-0.8-1-1.9-1-3.3c0-1.2,0.3-2.3,0.8-3.1c0.6-0.8,1.4-1.2,2.4-1.2c1.2,0,2.1,0.4,2.7,1.3c0.6,0.8,0.9,2,0.9,3.7
			c0,1.1-0.3,2.1-0.8,2.8C70.2,49.4,69.4,49.7,68.4,49.7z M68,41.7c-0.8,0-1.3,0.3-1.7,0.9c-0.4,0.6-0.7,1.5-0.7,2.6
			c0,1.2,0.3,2.2,0.8,2.8c0.5,0.6,1.2,0.9,2.1,0.9c0.7,0,1.2-0.3,1.6-0.8c0.4-0.6,0.7-1.4,0.7-2.3c0-1.5-0.2-2.5-0.7-3.2
			C69.6,42,68.9,41.7,68,41.7z"/>
	</g>
	<g>
		<path d="M81.7,50.1c0,1.3-0.7,2-2.2,2c-1.4,0-2.4-0.3-3.1-1.1c-0.7-0.7-1.1-1.7-1.1-3.1V34.2h0.9c0.8,0,1.4,0.2,1.8,0.6
			c0.4,0.4,0.6,1,0.6,1.6v11.2c0,0.7,0.2,1.1,0.5,1.4c0.4,0.3,0.9,0.4,1.7,0.4h0.9V50.1z"/>
		<path class="st1" d="M79.4,52.5c-1.5,0-2.6-0.4-3.4-1.2c-0.8-0.8-1.2-1.9-1.2-3.4V33.8h1.4c0.9,0,1.6,0.2,2.1,0.7
			c0.5,0.5,0.7,1.1,0.7,1.9v11.2c0,0.5,0.1,0.9,0.3,1c0.2,0.1,0.6,0.3,1.5,0.3h1.3v1.1C82.1,51.2,81.6,52.5,79.4,52.5z M75.6,34.6
			v13.3c0,1.2,0.3,2.2,1,2.8c0.6,0.6,1.6,0.9,2.8,0.9c1.3,0,1.8-0.5,1.8-1.6v-0.3h-0.5c-0.9,0-1.5-0.2-2-0.5
			c-0.5-0.3-0.7-0.9-0.7-1.7V36.4c0-0.6-0.2-1-0.5-1.3c-0.3-0.3-0.8-0.5-1.5-0.5H75.6z"/>
	</g>
	<g>
		<g>
			<path class="st3" d="M24.6,51.7h-1c-0.7,0-1.3-0.6-1.3-1.3V35.1c0-0.2,0.1-0.3,0.3-0.3H23c0.9,0,1.6,0.7,1.6,1.6V51.7z"/>
		</g>
		<g>
			<defs>
				<rect id="SVGID_1_" x="25.2" y="36.1" width="11.9" height="18"/>
			</defs>
			<clipPath id="SVGID_2_">
				<use xlink:href="#SVGID_1_"  style="overflow:visible;"/>
			</clipPath>
			<g class="st0">
				<path class="st2" d="M22.9,34.3c0.8,0,1.4,0.2,1.7,0.6s0.6,0.9,0.6,1.6v7.9c1.6-2.2,3-3.8,4.1-4.8c0.6-0.6,1.5-0.9,2.6-0.9h1.9
					v0.1c-0.4,0.4-1.3,1.3-2.5,2.6c-1.2,1.4-2.2,2.5-2.9,3.4c1.7,2,2.7,3.3,3.3,3.9c0.6,0.6,1,0.9,1.4,1.2c0.3,0.2,0.7,0.4,1.2,0.6
					c-0.2,0.6-0.4,1-0.8,1.2c-0.3,0.3-0.8,0.4-1.5,0.4c-0.8,0-1.6-0.3-2.2-0.9c-1.1-1.2-2.7-3.1-4.6-5.7v6.5h-1.1
					c-1.5,0-2.2-0.8-2.2-2.4V34.3H22.9z"/>
				<path class="st1" d="M32,52.6c-0.9,0-1.8-0.4-2.5-1c-1-1.1-2.4-2.7-3.9-4.7v5.7h-1.6c-1.7,0-2.6-1-2.6-2.8V33.9h1.5
					c0.9,0,1.6,0.2,2,0.7c0.4,0.5,0.7,1.1,0.7,1.9v6.7c1.3-1.7,2.4-3,3.4-3.9c0.7-0.7,1.7-1,2.9-1h2.3v0.7l-0.1,0.1
					c-0.4,0.3-1.2,1.2-2.5,2.6c-1.1,1.3-2,2.3-2.7,3.2c1.7,2.1,2.6,3.1,3,3.6c0.6,0.5,1,0.9,1.3,1.1c0.3,0.2,0.7,0.4,1.1,0.5
					l0.4,0.1l-0.1,0.4c-0.2,0.7-0.5,1.1-0.9,1.4C33.3,52.4,32.8,52.6,32,52.6z M25.3,45l0.2,0.3c1.9,2.5,3.4,4.4,4.6,5.6
					c0.5,0.5,1.1,0.8,1.9,0.8c0.5,0,1-0.1,1.2-0.3c0.2-0.1,0.4-0.4,0.5-0.7c-0.3-0.1-0.6-0.3-0.9-0.5c-0.4-0.2-0.8-0.6-1.4-1.2
					c-0.5-0.5-1.5-1.6-3.3-3.9l-0.2-0.3l0.2-0.3c0.7-0.9,1.7-2,2.9-3.5c0.8-0.9,1.4-1.6,1.9-2h-1c-1,0-1.8,0.3-2.4,0.8
					c-1.1,1-2.4,2.6-4,4.8L25.3,45z M22.3,34.7v15c0,1.3,0.6,1.9,1.8,1.9h0.7V36.5c0-0.6-0.1-1-0.4-1.3c-0.3-0.3-0.8-0.5-1.4-0.5
					H22.3z"/>
			</g>
		</g>
	</g>
	<g>
		<g>
			<g>
				<path class="st2" d="M30.7,30.2h0.5c0.7-1.9,2.7-3.3,5-3.3c2.9,0,5.3,2.2,5.3,5c0,1.6-0.8,3-2,3.9v0.9c0,0.5-0.3,1-0.8,1h-1
					c-0.4,0-0.7-0.4-0.8-0.9c-0.2,0-0.5,0.1-0.8,0.1c-0.2,0-0.4,0-0.7,0c0,0.5-0.4,0.9-0.8,0.9h-1c-0.4,0-0.8-0.4-0.8-1v-0.8
					c-0.8-0.5-1.4-1.3-1.7-2.1h-0.6c-0.5,0-0.9-0.4-0.9-1v-1.5C29.8,30.6,30.2,30.2,30.7,30.2z"/>
			</g>
		</g>
		<g>
			<g>
				<path class="st1" d="M30.7,30.2h0.5c0.7-1.9,2.7-3.3,5-3.3c2.9,0,5.3,2.2,5.3,5c0,1.6-0.8,3-2,3.9v0.9c0,0.5-0.3,1-0.8,1h-1
					c-0.4,0-0.7-0.4-0.8-0.9c-0.2,0-0.5,0.1-0.8,0.1c-0.2,0-0.4,0-0.7,0c0,0.5-0.4,0.9-0.8,0.9h-1c-0.4,0-0.8-0.4-0.8-1v-0.8
					c-0.8-0.5-1.4-1.3-1.7-2.1h-0.6c-0.5,0-0.9-0.4-0.9-1v-1.5C29.8,30.6,30.2,30.2,30.7,30.2z"/>
			</g>
		</g>
		<g>
			<g>
				<path d="M38.7,38h-1c-0.5,0-0.9-0.3-1.1-0.8c-0.3,0-0.5,0-0.8,0c-0.2,0.5-0.6,0.8-1.1,0.8h-1c-0.6,0-1.2-0.6-1.2-1.4v-0.6
					c-0.7-0.5-1.2-1.2-1.6-1.9h-0.3c-0.7,0-1.3-0.6-1.3-1.4v-1.5c0-0.8,0.6-1.4,1.3-1.4h0.2c0.9-2,3-3.3,5.3-3.3
					c3.2,0,5.7,2.4,5.7,5.4c0,1.6-0.7,3.1-2,4.1v0.7C39.9,37.3,39.4,38,38.7,38z M37.3,36.2l0,0.4c0,0.3,0.2,0.5,0.3,0.5h1
					c0.2,0,0.3-0.2,0.3-0.6v-1.1l0.2-0.1c1.2-0.9,1.8-2.2,1.8-3.5c0-2.5-2.2-4.5-4.9-4.5c-2.1,0-3.9,1.2-4.6,3.1l-0.1,0.3h-0.8
					c-0.2,0-0.4,0.3-0.4,0.6v1.5c0,0.3,0.2,0.6,0.4,0.6h0.9l0.1,0.3c0.3,0.8,0.9,1.4,1.6,1.9l0.2,0.1v1.1c0,0.3,0.2,0.6,0.3,0.6h1
					c0.1,0,0.3-0.2,0.3-0.5l0-0.4l0.4,0c0.5,0.1,0.9,0,1.3,0L37.3,36.2z"/>
			</g>
		</g>
	</g>
	<g>
		<g>
			<circle cx="36.6" cy="25.3" r="2.1"/>
			<path class="st1" d="M36.6,27.9c-1.4,0-2.5-1.1-2.5-2.5s1.1-2.5,2.5-2.5c1.4,0,2.5,1.1,2.5,2.5S38.1,27.9,36.6,27.9z M36.6,23.6
				c-0.9,0-1.7,0.8-1.7,1.7c0,0.9,0.8,1.7,1.7,1.7s1.7-0.8,1.7-1.7C38.4,24.4,37.6,23.6,36.6,23.6z"/>
		</g>
	</g>
</g>
</svg>
