<svg xmlns="http://www.w3.org/2000/svg" viewBox="0 0 41.38 26.96"><defs><style>.cls-1{fill:#fff;}.cls-2{fill:#3d3838;}.cls-3{fill:#ed1c24;}.cls-4{font-size:12px;font-family:My-FontRegular, My Font;}</style></defs><title>offerte bomba 2</title><g id="Livello_2" data-name="Livello 2"><g id="Livello_1-2" data-name="Livello 1"><path d="M12,25.47a4.29,4.29,0,0,1-1.16-8.42l.05,0,.13-.72a.35.35,0,0,1,.35-.29h.07l2.93.54a.34.34,0,0,1,.23.15.33.33,0,0,1,.06.27l-.14.72.05,0A4.3,4.3,0,0,1,12,25.47Z"/><path class="cls-1" d="M11.36,16.1h.05l2.94.55a.25.25,0,0,1,.17.11.29.29,0,0,1,.05.2l-.13.67,0,.11.08.06A4.2,4.2,0,0,1,12,25.38a3.94,3.94,0,0,1-.77-.07,4.2,4.2,0,0,1-.37-8.18l.1,0,0-.1.12-.67a.29.29,0,0,1,.27-.23m0-.16a.43.43,0,0,0-.43.36L10.8,17a4.38,4.38,0,1,0,3.81.71l.12-.67a.44.44,0,0,0-.35-.52l-2.94-.55Z"/><path class="cls-2" d="M9.12,23a3.24,3.24,0,0,1,1.14-4.66A5.61,5.61,0,0,0,9.12,23Z"/><path class="cls-2" d="M11.31,17l.09-.49a.08.08,0,0,1,.09-.06l.66.12a0,0,0,0,1,0,0,.75.75,0,0,0-.81.43S11.3,17,11.31,17Z"/><path d="M12.84,16.74a1.28,1.28,0,0,1,.15-.69,1.22,1.22,0,0,1,1-.51c.51-.08.91-.14.86-.82H15c.07.84-.5.92-1,1s-.73.11-.91.43a1.15,1.15,0,0,0-.12.6Z"/><path class="cls-3" d="M14.9,14.24a.57.57,0,0,1-.06-.25.65.65,0,0,1,.05-.27.63.63,0,0,1,0,.26A.57.57,0,0,1,14.9,14.24Z"/><path class="cls-3" d="M15.12,14.47a.63.63,0,0,1,.26-.05.46.46,0,0,1,.26,0,.46.46,0,0,1-.25.06A.65.65,0,0,1,15.12,14.47Z"/><path class="cls-3" d="M14.11,14.53a.76.76,0,0,1,.26-.06.63.63,0,0,1,.26,0,.82.82,0,0,1-.26.06A.6.6,0,0,1,14.11,14.53Z"/><text class="cls-4" transform="translate(0.25 10.11)">Offerte</text><text class="cls-4" transform="translate(0 24.86)"><tspan xml:space="preserve">b   mba</tspan></text></g></g></svg>