<svg xmlns="http://www.w3.org/2000/svg" viewBox="0 0 86.86 14.51"><defs><style>.cls-1{fill:#fff;}.cls-2{fill:#3d3838;}.cls-3{fill:#d82525;}</style></defs><title>offerte bomba</title><g id="Livello_2" data-name="Livello 2"><g id="Livello_1-2" data-name="Livello 1"><path d="M57.35,14.41a4.81,4.81,0,0,1-.93-.09A5.06,5.06,0,0,1,56,4.48H56l.16-.85a.43.43,0,0,1,.41-.35h.08l3.46.64a.42.42,0,0,1,.27.18.44.44,0,0,1,.07.32l-.16.85,0,0a5.06,5.06,0,0,1-3,9.11Z"/><path class="cls-1" d="M56.6,3.37h.06L60.12,4a.31.31,0,0,1,.21.14.29.29,0,0,1,.05.24l-.15.79,0,.12.1.07a5,5,0,0,1-3,8.93,4.78,4.78,0,0,1-.92-.09,4.92,4.92,0,0,1-3.18-2.06,5,5,0,0,1-.78-3.72A4.94,4.94,0,0,1,56,4.58l.12,0,0-.12.15-.79a.32.32,0,0,1,.31-.27m0-.2a.53.53,0,0,0-.51.43L56,4.39a5.15,5.15,0,1,0,4.48.83l.14-.79a.51.51,0,0,0-.41-.6L56.7,3.18Z"/><path class="cls-2" d="M54,11.52A3.79,3.79,0,0,1,55.31,6,6.53,6.53,0,0,0,54,11.52Z"/><path class="cls-2" d="M56.54,4.45l.11-.58a.08.08,0,0,1,.1-.07l.78.14h0a.92.92,0,0,0-1,.51S56.54,4.47,56.54,4.45Z"/><path d="M58.11,4.13a1.74,1.74,0,0,1,.2-.94,1.69,1.69,0,0,1,1.39-.72c.65-.1.85-.15.81-.71l.67-.05c.1,1.21-.79,1.34-1.38,1.42s-.76.13-.9.38a1.1,1.1,0,0,0-.12.58Z"/><path class="cls-3" d="M60.94.72a.78.78,0,0,1-.08-.36A.91.91,0,0,1,60.92,0,.78.78,0,0,1,61,.36.91.91,0,0,1,60.94.72Z"/><path class="cls-3" d="M61.25,1A1,1,0,0,1,61.61,1,.77.77,0,0,1,62,1a.94.94,0,0,1-.36.08A.91.91,0,0,1,61.25,1Z"/><path class="cls-3" d="M59.85,1.12A1,1,0,0,1,60.2,1a.84.84,0,0,1,.37.07.94.94,0,0,1-.36.08A.91.91,0,0,1,59.85,1.12Z"/><path d="M7.69,10.09a4.67,4.67,0,0,1-1.05,3.16,3.59,3.59,0,0,1-2.88,1.23,3.51,3.51,0,0,1-2.67-1.16,4.17,4.17,0,0,1-1.09-3A4.66,4.66,0,0,1,1.05,7.18,3.61,3.61,0,0,1,3.94,6,3.59,3.59,0,0,1,6.6,7.09,4.11,4.11,0,0,1,7.69,10.09ZM6,10.32a3.41,3.41,0,0,0-.58-2.16,2,2,0,0,0-1.64-.74,1.85,1.85,0,0,0-1.51.72,3.06,3.06,0,0,0-.58,1.95c0,2,.74,3,2.22,3a1.86,1.86,0,0,0,1.53-.7A3.19,3.19,0,0,0,6,10.32Z"/><path d="M12.73,7.13h0A3.19,3.19,0,0,0,11.75,7C11,7,10.6,7.35,10.6,8.08v.57h1.85V9.1a.78.78,0,0,1-.36.66,1.33,1.33,0,0,1-.8.25H10.6v4.32H10a1,1,0,0,1-.69-.27A.92.92,0,0,1,9,13.37V7.94a2.16,2.16,0,0,1,.14-.76,3,3,0,0,1,.41-.76,1.92,1.92,0,0,1,.79-.61,2.73,2.73,0,0,1,1.18-.24,1.45,1.45,0,0,1,.89.28.89.89,0,0,1,.34.74Z"/><path d="M17.15,7.13h0A3.07,3.07,0,0,0,16.17,7C15.4,7,15,7.35,15,8.08v.57h1.84V9.1a.77.77,0,0,1-.35.66,1.33,1.33,0,0,1-.8.25H15v4.32h-.65a1,1,0,0,1-.69-.27.93.93,0,0,1-.29-.69V7.94a2.18,2.18,0,0,1,.15-.76A2.46,2.46,0,0,1,14,6.42a1.92,1.92,0,0,1,.79-.61,2.72,2.72,0,0,1,1.17-.24,1.41,1.41,0,0,1,.89.28.9.9,0,0,1,.35.74Z"/><path d="M23.27,10.22a1.24,1.24,0,0,1-.7,1.22,5.69,5.69,0,0,1-2.33.35H19.18a1.41,1.41,0,0,0,.59,1,2,2,0,0,0,1.22.37,2.84,2.84,0,0,0,2-.61H23V13c0,1-.78,1.47-2.33,1.47a3.21,3.21,0,0,1-3.19-3.25,3.61,3.61,0,0,1,.89-2.56,3,3,0,0,1,2.28-1,2.64,2.64,0,0,1,1.83.69A2.33,2.33,0,0,1,23.27,10.22ZM21.76,10a.83.83,0,0,0-.32-.72,1.44,1.44,0,0,0-.9-.25,1.28,1.28,0,0,0-.95.4,1.52,1.52,0,0,0-.41,1v.22h.72a4.9,4.9,0,0,0,1.5-.15A.48.48,0,0,0,21.76,10Z"/><path d="M28.24,9.42h-.06a2.66,2.66,0,0,0-.93-.19c-.75,0-1.12.46-1.12,1.38v3.72h-.44a1.25,1.25,0,0,1-.86-.27,1,1,0,0,1-.32-.76v-3a2.75,2.75,0,0,1,.6-1.8,2.18,2.18,0,0,1,1.79-.73,1.47,1.47,0,0,1,1,.31,1,1,0,0,1,.33.75Z"/><path d="M29.2,8.11a2.12,2.12,0,0,1,.1-.7,2.38,2.38,0,0,1,.37-.58,1,1,0,0,1,.76-.44h.37V7.85h2.25v.66a.71.71,0,0,1-.26.53,1,1,0,0,1-.7.24H30.8v2.53q0,1.17,1,1.17A2.27,2.27,0,0,0,33,12.75h.07v.57a1,1,0,0,1-.37.79,1.6,1.6,0,0,1-1.05.29,2.4,2.4,0,0,1-1.81-.63A2.4,2.4,0,0,1,29.2,12Z"/><path d="M39.46,10.22a1.24,1.24,0,0,1-.7,1.22,5.69,5.69,0,0,1-2.33.35H35.37a1.37,1.37,0,0,0,.59,1,2,2,0,0,0,1.22.37,2.86,2.86,0,0,0,2-.61h.06V13q0,1.47-2.34,1.47a3.21,3.21,0,0,1-3.18-3.25,3.61,3.61,0,0,1,.89-2.56,3,3,0,0,1,2.28-1,2.64,2.64,0,0,1,1.83.69A2.33,2.33,0,0,1,39.46,10.22ZM38,10a.83.83,0,0,0-.32-.72,1.44,1.44,0,0,0-.9-.25,1.28,1.28,0,0,0-.95.4,1.52,1.52,0,0,0-.41,1v.22h.72a4.9,4.9,0,0,0,1.5-.15A.48.48,0,0,0,38,10Z"/><path d="M51,11a3.66,3.66,0,0,1-.88,2.51,3,3,0,0,1-2.33,1,2.84,2.84,0,0,1-2.16-.94,3.32,3.32,0,0,1-.89-2.37V5.69h.55A1,1,0,0,1,46,6a1.1,1.1,0,0,1,.29.84V8.69a2.06,2.06,0,0,1,1.75-1,2.69,2.69,0,0,1,2.08.91A3.39,3.39,0,0,1,51,11Zm-1.66.28a2.65,2.65,0,0,0-.39-1.63,1.42,1.42,0,0,0-1.16-.48,1.24,1.24,0,0,0-1,.53,2,2,0,0,0-.41,1.28c0,1.4.54,2.11,1.6,2.11a1.21,1.21,0,0,0,1-.52A2.06,2.06,0,0,0,49.3,11.24Z"/><path d="M72.66,14.33h-.4a1.28,1.28,0,0,1-.93-.29,1.2,1.2,0,0,1-.3-.89V10.66a1.77,1.77,0,0,0-.31-1.15,1.08,1.08,0,0,0-.87-.38,1,1,0,0,0-.8.35,1.49,1.49,0,0,0-.3,1v3.85h-.43a1.22,1.22,0,0,1-.86-.3,1.18,1.18,0,0,1-.31-.88V10.66a1.77,1.77,0,0,0-.32-1.15A1.11,1.11,0,0,0,66,9.13a1,1,0,0,0-.79.37,1.55,1.55,0,0,0-.3,1v3.81h-.44a1.12,1.12,0,0,1-.83-.32,1.14,1.14,0,0,1-.33-.86v-2.5A3.05,3.05,0,0,1,64,8.5a2.8,2.8,0,0,1,2.16-.79,2.33,2.33,0,0,1,2,1A2,2,0,0,1,68.89,8,2.18,2.18,0,0,1,70,7.71a2.71,2.71,0,0,1,1.93.7,2.68,2.68,0,0,1,.76,2Z"/><path d="M80.5,11a3.66,3.66,0,0,1-.88,2.51,3,3,0,0,1-2.33,1,2.84,2.84,0,0,1-2.16-.94,3.32,3.32,0,0,1-.89-2.37V5.69h.55a1,1,0,0,1,.77.28,1.1,1.1,0,0,1,.29.84V8.69a2.06,2.06,0,0,1,1.75-1,2.7,2.7,0,0,1,2.08.91A3.39,3.39,0,0,1,80.5,11Zm-1.66.28a2.65,2.65,0,0,0-.39-1.63,1.44,1.44,0,0,0-1.16-.48,1.24,1.24,0,0,0-1,.53,2,2,0,0,0-.41,1.28c0,1.4.53,2.11,1.6,2.11a1.21,1.21,0,0,0,1-.52A2.06,2.06,0,0,0,78.84,11.24Z"/><path d="M86.86,12.12a2.22,2.22,0,0,1-.68,1.67,2.47,2.47,0,0,1-1.76.65h-.33a3,3,0,0,1-1.87-.58,1.79,1.79,0,0,1-.72-1.47,1.74,1.74,0,0,1,.76-1.49,4.31,4.31,0,0,1,2.45-.54h.57v-.08A1.17,1.17,0,0,0,85,9.34a1.78,1.78,0,0,0-1.07-.25,3.17,3.17,0,0,0-1.31.23,2,2,0,0,0-.75.51h-.06V9.32a1.4,1.4,0,0,1,.6-1.11,2.71,2.71,0,0,1,1.75-.48,3.76,3.76,0,0,1,1,.14,2.68,2.68,0,0,1,.86.47,2,2,0,0,1,.61.9,3.9,3.9,0,0,1,.22,1.39Zm-1.57,0v-.62h-.58a2.69,2.69,0,0,0-1.22.2.73.73,0,0,0,0,1.21,1.38,1.38,0,0,0,.82.21A.9.9,0,0,0,85.29,12.13Z"/></g></g></svg>