<svg xmlns="http://www.w3.org/2000/svg" xmlns:xlink="http://www.w3.org/1999/xlink" viewBox="0 0 93 93"><defs><style>.cls-1{fill:url(#radial-gradient);}.cls-2{fill:#c82127;}.cls-3{opacity:0.8;mix-blend-mode:screen;}.cls-4{fill:url(#linear-gradient);}.cls-5{fill:url(#linear-gradient-2);}.cls-6{fill:url(#linear-gradient-3);}.cls-7{fill:url(#linear-gradient-4);}.cls-8{fill:url(#linear-gradient-5);}</style><radialGradient id="radial-gradient" cx="13.42" cy="-4.28" r="42.63" gradientTransform="translate(0.01)" gradientUnits="userSpaceOnUse"><stop offset="0" stop-color="#f69778"/><stop offset="1" stop-color="#ec1c24"/></radialGradient><linearGradient id="linear-gradient" x1="0.5" y1="13.84" x2="39.39" y2="13.84" gradientUnits="userSpaceOnUse"><stop offset="0" stop-color="#fff"/><stop offset="1"/></linearGradient><linearGradient id="linear-gradient-2" x1="47.35" y1="23.47" x2="51.36" y2="23.47" xlink:href="#linear-gradient"/><linearGradient id="linear-gradient-3" x1="41.07" y1="12.09" x2="48.2" y2="12.09" xlink:href="#linear-gradient"/><linearGradient id="linear-gradient-4" x1="3.75" y1="35.09" x2="5.71" y2="35.09" xlink:href="#linear-gradient"/><linearGradient id="linear-gradient-5" x1="11.33" y1="44.94" x2="13.01" y2="44.94" xlink:href="#linear-gradient"/><symbol id="Badge_3_-_rosso" data-name="Badge 3 - rosso" viewBox="0 0 52 52"><path class="cls-1" d="M26,51.88c-1.1,0-2.09-1.23-3-2.4s-1.68-2.09-2.62-2.34a2.45,2.45,0,0,0-.62-.08,8.88,8.88,0,0,0-2.95.8,9.1,9.1,0,0,1-2.82.76,1.78,1.78,0,0,1-.89-.21c-.93-.53-1.16-2.06-1.39-3.54-.21-1.32-.42-2.69-1.14-3.4s-2.08-.93-3.41-1.14-3-.47-3.53-1.39,0-2.33.55-3.71,1-2.57.72-3.57S3.6,29.9,2.52,29,.13,27.1.13,26s1.21-2.08,2.39-3,2.09-1.68,2.34-2.64-.23-2.3-.72-3.56S3.07,14,3.59,13.06s2.06-1.16,3.53-1.39,2.7-.42,3.41-1.14.93-2.08,1.14-3.41.47-3,1.39-3.53A1.78,1.78,0,0,1,14,3.38a9.1,9.1,0,0,1,2.82.76,8.88,8.88,0,0,0,2.95.8,2.45,2.45,0,0,0,.62-.08C21.29,4.61,22.1,3.6,23,2.52S24.9.12,26,.12s2.08,1.22,3,2.4,1.68,2.09,2.64,2.34a2.31,2.31,0,0,0,.61.08,8.88,8.88,0,0,0,2.95-.8,9.1,9.1,0,0,1,2.82-.76,1.78,1.78,0,0,1,.89.21c.92.53,1.16,2.06,1.39,3.53s.42,2.7,1.14,3.41,2.08.93,3.4,1.14c1.48.23,3,.47,3.54,1.39s0,2.33-.56,3.71-1,2.57-.71,3.57S48.4,22.1,49.48,23s2.39,1.93,2.39,3-1.22,2.08-2.4,3-2.08,1.68-2.34,2.63.24,2.31.72,3.57,1.08,2.81.56,3.71-2.06,1.16-3.54,1.39c-1.32.21-2.69.42-3.4,1.14s-.93,2.08-1.14,3.4c-.23,1.48-.47,3-1.39,3.54a1.78,1.78,0,0,1-.89.21,9,9,0,0,1-2.82-.76,9,9,0,0,0-2.95-.8,2.45,2.45,0,0,0-.62.08c-.95.25-1.76,1.26-2.63,2.34S27.1,51.88,26,51.88Z"/><path class="cls-2" d="M26,.25c1,0,2,1.2,2.94,2.35S30.64,4.72,31.63,5a2.7,2.7,0,0,0,.65.07,9.08,9.08,0,0,0,3-.8,8.91,8.91,0,0,1,2.77-.76,1.64,1.64,0,0,1,.83.2c.87.5,1.1,2,1.33,3.44s.43,2.74,1.17,3.48,2.13,1,3.47,1.17,2.95.46,3.45,1.33,0,2.25-.56,3.6-1,2.61-.73,3.65,1.3,1.82,2.39,2.69S51.75,25,51.75,26s-1.2,2-2.35,2.94-2.12,1.7-2.39,2.69.23,2.36.73,3.65,1,2.75.56,3.6-2,1.1-3.45,1.33-2.73.43-3.47,1.17-1,2.13-1.17,3.47-.46,2.95-1.33,3.45a1.55,1.55,0,0,1-.83.2,9,9,0,0,1-2.78-.76,9,9,0,0,0-3-.8,2.7,2.7,0,0,0-.65.07c-1,.27-1.82,1.3-2.69,2.39S27,51.75,26,51.75s-2-1.2-2.94-2.35-1.7-2.12-2.69-2.39a2.7,2.7,0,0,0-.65-.07,9.08,9.08,0,0,0-3,.8A8.91,8.91,0,0,1,14,48.5a1.55,1.55,0,0,1-.83-.2c-.87-.5-1.1-2-1.33-3.45s-.43-2.73-1.17-3.47-2.13-1-3.48-1.17S4.2,39.75,3.7,38.88s0-2.25.56-3.6,1-2.61.73-3.65-1.3-1.82-2.39-2.69S.25,27,.25,26s1.2-2,2.35-2.94S4.72,21.36,5,20.37,4.75,18,4.26,16.72,3.2,14,3.7,13.12s2-1.1,3.44-1.33,2.74-.43,3.48-1.17,1-2.13,1.17-3.48.46-2.94,1.33-3.44A1.55,1.55,0,0,1,14,3.5a8.91,8.91,0,0,1,2.77.76,9.08,9.08,0,0,0,3,.8A2.7,2.7,0,0,0,20.37,5c1-.27,1.82-1.3,2.69-2.39S25,.25,26,.25M26,0c-2.15,0-3.71,4.21-5.7,4.74a2.15,2.15,0,0,1-.58.07C18,4.81,15.64,3.25,14,3.25a1.88,1.88,0,0,0-.95.23c-1.82,1.06-1.08,5.48-2.56,7s-5.91.74-7,2.56,1.81,5.25,1.26,7.3S0,23.85,0,26s4.21,3.71,4.74,5.7S2.44,37.21,3.48,39s5.48,1.08,7,2.56.73,5.9,2.56,7a1.88,1.88,0,0,0,.95.23c1.69,0,4.05-1.56,5.77-1.56a2.15,2.15,0,0,1,.58.07c2,.53,3.55,4.74,5.7,4.74s3.71-4.21,5.7-4.74a2.15,2.15,0,0,1,.58-.07c1.71,0,4.08,1.56,5.77,1.56a1.88,1.88,0,0,0,1-.23c1.82-1.06,1.08-5.48,2.55-7s5.91-.74,7-2.56-1.81-5.25-1.27-7.3S52,28.15,52,26s-4.21-3.71-4.74-5.7,2.3-5.51,1.26-7.3-5.49-1.08-7-2.56-.74-5.9-2.56-7a1.88,1.88,0,0,0-1-.23c-1.69,0-4,1.56-5.77,1.56a2.15,2.15,0,0,1-.58-.07C29.71,4.21,28.15,0,26,0Z"/><g class="cls-3"><path class="cls-4" d="M.9,26.62c0-.92,1.14-1.85,2.26-2.74s2.18-1.76,2.46-2.83-.22-2.48-.73-3.8-1-2.64-.58-3.39,1.88-1,3.27-1.21,2.81-.43,3.61-1.24,1-2.23,1.24-3.61S12.88,5,13.64,4.53a1.38,1.38,0,0,1,.71-.16A8.52,8.52,0,0,1,17,5.11a9.42,9.42,0,0,0,3.1.82,3.22,3.22,0,0,0,.71-.08c1.07-.29,2-1.4,2.83-2.48s1.81-2.25,2.74-2.25,1.84,1.14,2.74,2.26S30.9,5.56,32,5.85a3.22,3.22,0,0,0,.71.08,9.28,9.28,0,0,0,3.08-.81,8.45,8.45,0,0,1,2.7-.75,1.37,1.37,0,0,1,.7.16,1.43,1.43,0,0,1,.24.19,1.59,1.59,0,0,0-.64-.8,1.28,1.28,0,0,0-.7-.17,8.79,8.79,0,0,0-2.7.75,9.31,9.31,0,0,1-3.08.82,2.58,2.58,0,0,1-.7-.09c-1.07-.29-2-1.4-2.83-2.47S26.92.5,26,.5s-1.85,1.15-2.74,2.26S21.5,4.94,20.43,5.23a2.63,2.63,0,0,1-.7.09,9.44,9.44,0,0,1-3.11-.83A8.65,8.65,0,0,0,14,3.75a1.28,1.28,0,0,0-.7.17c-.77.44-1,1.87-1.21,3.26S11.6,10,10.8,10.8s-2.24,1-3.62,1.24-2.82.44-3.27,1.21.09,2.09.58,3.38,1,2.69.74,3.8-1.4,2-2.47,2.83S.5,25.08.5,26A1.89,1.89,0,0,0,1,27.17,1.25,1.25,0,0,1,.9,26.62Z"/><path class="cls-5" d="M47.35,21.5a8.14,8.14,0,0,0,2.29,2.38,12.09,12.09,0,0,1,1.72,1.57,7.34,7.34,0,0,0-2.12-2.19A11.88,11.88,0,0,1,47.35,21.5Z"/><path class="cls-6" d="M41.6,11.41c.8.81,2.23,1,3.61,1.24a6.78,6.78,0,0,1,3,.9,1,1,0,0,0-.12-.3c-.44-.77-1.88-1-3.27-1.21S42,11.6,41.2,10.8a1.09,1.09,0,0,1-.13-.17A2.56,2.56,0,0,0,41.6,11.41Z"/><path class="cls-7" d="M4.89,36c.51-1.32,1-2.68.73-3.8a3,3,0,0,0-.57-1.06,2.49,2.49,0,0,1,.18.45c.3,1.11-.23,2.48-.74,3.8s-1,2.63-.58,3.38a1.4,1.4,0,0,0,.28.32A6.27,6.27,0,0,1,4.89,36Z"/><path class="cls-8" d="M12.43,45.43A7.22,7.22,0,0,0,11.33,42,10.29,10.29,0,0,1,12,44.82a6.19,6.19,0,0,0,1,3.08A10.68,10.68,0,0,1,12.43,45.43Z"/></g></symbol></defs><title>Risorsa 1</title><g id="Livello_2" data-name="Livello 2"><g id="Livello_1-2" data-name="Livello 1"><use width="52" height="52" transform="scale(1.79 1.79)" xlink:href="#Badge_3_-_rosso"/></g></g></svg>